<?xml version="1.0" encoding="UTF-8"?>
<svg id="Layer_1" data-name="Layer 1" xmlns="http://www.w3.org/2000/svg" viewBox="0 0 32 32">
  <path d="m23.73,4.79c-.11,0-.23,0-.34,0-3.73,0-7.45,0-11.18,0-.96,0-1.74-.35-2.23-1.18-.93-1.6.13-3.5,2-3.61.08,0,.17,0,.26,0C17.96,0,23.69,0,29.42,0c1.07,0,1.89.42,2.34,1.4.16.34.23.74.23,1.11.01,5.78.01,11.56,0,17.34,0,1.96-1.96,3.13-3.61,2.16-.84-.49-1.18-1.27-1.18-2.22,0-3.73,0-7.45,0-11.18v-.34s-.07-.05-.1-.08c-.08.11-.14.23-.24.32-7.51,7.52-15.03,15.03-22.54,22.54-.46.46-.96.83-1.63.92-.89.12-1.9-.34-2.35-1.11-.51-.88-.46-1.96.14-2.7.15-.19.32-.37.5-.54,7.48-7.48,14.97-14.97,22.45-22.45.11-.1.23-.19.34-.29-.02-.03-.04-.07-.06-.1Z"/>
</svg>