<?xml version="1.0" encoding="UTF-8"?>
<svg id="Layer_1" data-name="Layer 1" xmlns="http://www.w3.org/2000/svg" viewBox="0 0 29.46 32">
  <path d="m28.06,4.02c-.1.8-.21,1.61-.32,2.43-.05.35,0,.68.19.98.71,1.03,1.2,2.15,1.4,3.39.26,1.57.13,3.11-.33,4.63-.68,2.29-1.94,4.19-3.82,5.66-.75.59-1.59,1.04-2.49,1.37-.84.31-.96.55-.8,1.45.3,1.68.42,3.37.5,5.07.02.49.01.97.03,1.46.03.73-.75,1.46-1.4,1.48-.2,0-.43-.03-.61-.12-.51-.27-.86-.69-.9-1.3-.03-.49-.03-.97-.05-1.46-.04-.86-.06-1.71-.13-2.57-.1-1.25-.41-2.44-.93-3.58-.12-.25-.19-.53-.24-.81-.12-.61.1-1.11.68-1.37.5-.23,1.05-.38,1.59-.52,2.51-.66,4.33-2.16,5.43-4.52.51-1.11.78-2.28.74-3.51-.05-1.35-.44-2.57-1.4-3.56-.35-.36-.56-.8-.51-1.3.07-.68.19-1.35.28-2.02.08-.62.18-1.25.22-1.88.03-.45-.16-.6-.6-.45-.64.22-1.27.49-1.9.76-.39.17-.75.39-1.14.55-.2.08-.44.15-.65.13-1.63-.16-3.27-.3-4.91-.27-1.5.03-3,.14-4.5.21-.28.01-.55.07-.82.07-.18,0-.37-.05-.54-.12-.95-.42-1.89-.85-2.84-1.26-.14-.06-.31-.08-.47-.08-.18,0-.32.11-.31.29.02.45.04.91.12,1.36.11.7.27,1.4.42,2.09.14.64-.02,1.2-.4,1.72-.47.64-.88,1.31-1.14,2.07-.4,1.2-.43,2.41-.16,3.63.45,2.02,1.47,3.68,3.18,4.87.97.67,2.05,1.07,3.19,1.33.37.09.75.2,1.1.35.56.24.8.68.72,1.28-.06.44-.15.88-.29,1.29-.18.52-.39,1.03-.64,1.52-.37.72-1.16.72-1.74.47-.61-.26-.92-.91-.76-1.57.01-.05.02-.1.04-.15.18-.4.09-.53-.34-.7-.86-.33-1.71-.67-2.5-1.17-1.89-1.2-3.24-2.86-4.14-4.9-.58-1.31-.89-2.68-.87-4.12.03-1.56.29-3.06,1.04-4.45.12-.22.25-.45.39-.65.26-.37.31-.77.24-1.2-.17-1.08-.31-2.17-.24-3.27.03-.5.08-1.02.25-1.49.33-.91,1.08-1.35,2-1.51.96-.16,1.88.09,2.77.41.45.16.9.34,1.31.58.64.36,1.31.42,2.02.32,2.19-.3,4.38-.35,6.58-.12.42.04.84.09,1.25.15.53.08,1.02,0,1.5-.25.83-.45,1.7-.79,2.62-1,.61-.13,1.22-.19,1.84-.08,1.16.22,1.82.89,1.99,2.06.09.62.12,1.25.17,1.9Z"/>
  <path d="m8.28,30.58c-.74-.07-1.49-.12-2.23-.21-.55-.07-1.08-.22-1.56-.51-.47-.29-.74-.72-.84-1.26-.28-1.54-1.06-2.78-2.19-3.84-.47-.44-.88-.95-1.24-1.47-.42-.61-.2-1.44.42-1.88.55-.4,1.42-.3,1.88.22.69.76,1.4,1.51,2.07,2.29.82.96,1.35,2.07,1.68,3.28.06.21.12.35.37.36.73.03,1.46.1,2.19.13.64.02,1.28,0,1.92,0,.93,0,1.52.51,1.58,1.43.04.53.03,1.07-.01,1.61-.06.75-.66,1.28-1.41,1.29-.73.01-1.35-.52-1.44-1.25-.02-.17-.09-.2-.24-.19-.32,0-.64,0-.96,0,0,0,0,.01,0,.02Z"/>
</svg>